<svg width="60" height="60" viewBox="0 0 60 60" fill="none" xmlns="http://www.w3.org/2000/svg">
<path d="M7.65034 13.846C5.74181 15.0539 4.53188 17.1072 4.39984 19.362V40.638C4.53188 42.8928 5.74181 44.946 7.65034 46.154L26.7396 56.8314C28.7902 57.8361 31.1901 57.8361 33.2406 56.8314L52.3496 46.154C54.2582 44.946 55.4681 42.8928 55.6001 40.638V19.362C55.4681 17.1072 54.2582 15.0539 52.3496 13.846L33.2603 3.16858C31.2098 2.16386 28.8099 2.16386 26.7593 3.16858L7.65034 13.846Z" fill="#14BF96"/>
<path d="M49.6113 24.7205C39.0127 24.7205 31.0933 33.5067 31.0933 44.2826V44.7357H28.9657V44.2826C28.9657 33.5067 21.0857 24.7599 10.408 24.7205C10.408 25.3903 10.408 26.0798 10.408 26.6905C10.3652 34.8427 15.3924 42.1635 23.0163 45.0509C25.2819 45.8816 27.6756 46.3083 30.0886 46.3117C32.5209 46.3083 34.934 45.8817 37.22 45.0509C44.8325 42.1524 49.8488 34.836 49.8086 26.6905C49.7098 26.0601 49.6704 25.3903 49.6113 24.7205Z" fill="white"/>
<path d="M30.0098 25.5478C33.2738 25.5478 35.9198 22.9018 35.9198 19.6378C35.9198 16.3738 33.2738 13.7278 30.0098 13.7278C26.7458 13.7278 24.0998 16.3738 24.0998 19.6378C24.0998 22.9018 26.7458 25.5478 30.0098 25.5478Z" fill="white"/>
</svg>
