<svg width="131" height="55" viewBox="0 0 131 55" fill="none" xmlns="http://www.w3.org/2000/svg">
<path d="M19.6533 16.8051H12V12.5H32.7089V16.8051H25.0556V35.4979C25.0556 35.9952 24.6525 36.3983 24.1552 36.3983C21.6689 36.3983 19.6533 34.3827 19.6533 31.8964V16.8051Z" fill="#605DEC"/>
<path d="M44.3751 21.6149C44.4544 22.6933 43.6623 23.6395 42.5867 23.751L41.5739 23.8559C40.1195 23.9915 39.0921 24.3983 38.4919 25.0763C37.8916 25.7316 37.5915 26.613 37.5915 27.7203V35.3983C37.5915 35.9506 37.1438 36.3983 36.5915 36.3983H34.3623C33.2577 36.3983 32.3623 35.5029 32.3623 34.3983V20.7542C32.3623 20.202 32.81 19.7542 33.3623 19.7542H36.3837C36.936 19.7542 37.3837 20.202 37.3837 20.7542V22.5678C38.2379 20.6469 40.004 19.596 42.6821 19.4153C43.5253 19.359 44.2559 19.9938 44.3179 20.8366L44.3751 21.6149Z" fill="#605DEC"/>
<path d="M46.2617 20.7542C46.2617 20.202 46.7095 19.7542 47.2617 19.7542H50.4909C51.0432 19.7542 51.4909 20.202 51.4909 20.7542V35.3983C51.4909 35.9506 51.0432 36.3983 50.4909 36.3983H48.2617C47.1572 36.3983 46.2617 35.5029 46.2617 34.3983V20.7542Z" fill="#605DEC"/>
<path d="M66.0218 19.3475C67.4763 19.3475 68.7691 19.7203 69.9004 20.4661C71.0547 21.1893 71.9436 22.2175 72.5669 23.5508C73.2134 24.8616 73.5366 26.3757 73.5366 28.0932C73.5366 29.8107 73.2134 31.3249 72.5669 32.6356C71.9436 33.9237 71.0663 34.9181 69.935 35.6186C68.8038 36.3192 67.4994 36.6695 66.0218 36.6695C64.8675 36.6695 63.817 36.4435 62.8705 35.9915C61.947 35.517 61.2313 34.8616 60.7234 34.0254V41.6285C60.7234 42.1098 60.3332 42.5 59.8519 42.5C57.4452 42.5 55.4942 40.549 55.4942 38.1424V20.7542C55.4942 20.202 55.9419 19.7542 56.4942 19.7542H59.6541C60.2064 19.7542 60.6541 20.202 60.6541 20.7542V22.0932C61.162 21.2345 61.8893 20.5678 62.8358 20.0932C63.7824 19.596 64.8444 19.3475 66.0218 19.3475ZM64.4981 32.7712C65.7217 32.7712 66.6682 32.3757 67.3378 31.5847C68.0073 30.7712 68.342 29.6073 68.342 28.0932C68.342 26.5565 68.0073 25.3701 67.3378 24.5339C66.6682 23.6751 65.7217 23.2458 64.4981 23.2458C63.2745 23.2458 62.3279 23.6638 61.6584 24.5C60.9889 25.3136 60.6541 26.4887 60.6541 28.0254C60.6541 29.5396 60.9889 30.7147 61.6584 31.5508C62.3279 32.3644 63.2745 32.7712 64.4981 32.7712Z" fill="#605DEC"/>
<path d="M95.2787 19.3475C97.218 19.3475 98.6609 19.9237 99.6075 21.0763C100.554 22.2288 101.027 23.9915 101.027 26.3644V34.3983C101.027 35.5029 100.132 36.3983 99.0273 36.3983H97.7982C96.6936 36.3983 95.7982 35.5029 95.7982 34.3983V26.5339C95.7982 25.404 95.6135 24.5904 95.2441 24.0932C94.8978 23.596 94.2975 23.3475 93.4433 23.3475C91.8206 23.3475 91.2539 24.8635 91.2539 27.2119V34.3983C91.2539 35.5029 90.3585 36.3983 89.2539 36.3983H88.0247C86.9202 36.3983 86.0247 35.5029 86.0247 34.3983V26.5339C86.0247 25.404 85.84 24.5904 85.4707 24.0932C85.1244 23.596 84.5241 23.3475 83.6699 23.3475C82.0472 23.3475 81.4805 24.8635 81.4805 27.2119V34.3983C81.4805 35.5029 80.5851 36.3983 79.4805 36.3983H78.2513C77.1468 36.3983 76.2513 35.5029 76.2513 34.3983V22.7542C76.2513 21.0974 77.5945 19.7542 79.2513 19.7542H80.342C80.8942 19.7542 81.342 20.202 81.342 20.7542V21.9915C82.4865 20.1406 83.0013 19.3475 85.5745 19.3475C88.091 19.3475 89.7764 20.3757 90.6306 22.4322C91.8088 20.4139 92.5463 19.3475 95.2787 19.3475Z" fill="#605DEC"/>
<path d="M111.554 19.3475C114.094 19.3475 115.964 19.935 117.165 21.1102C118.388 22.2853 119 24.1045 119 26.5678V33.8734C119 35.5302 117.657 36.8734 116 36.8734H114.048V33.9237C113.702 34.7825 113.124 35.4605 112.316 35.9576C111.508 36.4322 110.562 36.6695 109.477 36.6695C108.322 36.6695 107.272 36.4435 106.325 35.9915C105.402 35.5396 104.663 34.9068 104.109 34.0932C103.578 33.2797 103.312 32.3757 103.312 31.3814C103.312 30.161 103.624 29.2006 104.248 28.5C104.894 27.7994 105.921 27.291 107.33 26.9746C108.738 26.6582 110.666 26.5 113.113 26.5H114.013V25.8898C114.013 24.8955 113.794 24.1949 113.355 23.7881C112.917 23.3814 112.155 23.178 111.07 23.178C110.239 23.178 109.315 23.3249 108.299 23.6186C107.962 23.7161 107.63 23.8261 107.303 23.9484C106.254 24.3411 105.018 23.9193 104.598 22.881C104.256 22.0362 104.575 21.0573 105.413 20.6985C106.064 20.4197 106.784 20.1727 107.572 19.9576C109.003 19.5508 110.331 19.3475 111.554 19.3475ZM110.619 33.1441C111.635 33.1441 112.455 32.8164 113.078 32.161C113.702 31.4831 114.013 30.613 114.013 29.5508V28.9746H113.425C111.554 28.9746 110.239 29.1215 109.477 29.4153C108.738 29.709 108.369 30.2401 108.369 31.0085C108.369 31.6186 108.576 32.1271 108.992 32.5339C109.431 32.9407 109.973 33.1441 110.619 33.1441Z" fill="#605DEC"/>
<path d="M51.5 15.5C51.5 16.8807 50.3807 18 49 18C47.6193 18 46.5 16.8807 46.5 15.5C46.5 14.1193 47.6193 13 49 13C50.3807 13 51.5 14.1193 51.5 15.5Z" fill="#605DEC"/>
</svg>
